<?xml version="1.0" encoding="UTF-8" standalone="no"?>
<!DOCTYPE svg PUBLIC "-//W3C//DTD SVG 1.1//EN" "http://www.w3.org/Graphics/SVG/1.1/DTD/svg11.dtd">
<svg xmlns="http://www.w3.org/2000/svg" version="1.1" viewBox="0.00 0.00 500.00 500.00">
<g stroke-width="2.00" fill="none" stroke-linecap="butt">
<path stroke="#918f90" vector-effect="non-scaling-stroke" d="
  M 304.08 90.38
  Q 277.79 161.14 249.16 230.98
  A 0.38 0.37 -78.8 0 0 249.50 231.50
  L 256.24 231.50
  Q 256.65 231.50 256.81 231.11
  Q 284.92 162.41 315.24 94.64
  A 0.37 0.36 22.6 0 0 315.03 94.15
  L 304.52 90.17
  A 0.35 0.34 -69.7 0 0 304.08 90.38"
/>
<path stroke="#918f90" vector-effect="non-scaling-stroke" d="
  M 128.46 230.21
  Q 145.40 221.46 162.27 211.30
  Q 162.94 210.90 162.50 210.26
  L 151.34 194.10
  A 0.41 0.39 -35.2 0 0 150.77 194.01
  Q 125.46 213.17 99.19 231.00
  Q 98.62 231.39 99.31 231.41
  Q 111.63 231.73 123.90 231.39
  Q 126.31 231.32 128.46 230.21"
/>
<path stroke="#918f90" vector-effect="non-scaling-stroke" d="
  M 348.63 194.15
  L 337.30 210.53
  Q 337.00 210.97 337.45 211.23
  Q 354.39 221.14 371.67 230.50
  Q 373.53 231.51 375.67 231.51
  Q 388.24 231.50 400.91 231.50
  Q 401.43 231.50 401.00 231.21
  Q 374.63 213.28 349.20 194.06
  A 0.41 0.39 35.2 0 0 348.63 194.15"
/>
<path stroke="#918f90" vector-effect="non-scaling-stroke" d="
  M 300.87 252.07
  L 302.11 251.69
  Q 302.71 251.50 302.91 250.90
  Q 303.94 247.78 302.35 244.92
  Q 302.01 244.29 301.29 244.26
  L 293.19 243.90
  Q 292.50 243.87 292.50 244.56
  L 292.50 262.59
  Q 292.50 263.20 293.10 263.16
  L 301.77 262.58
  Q 302.43 262.54 302.68 261.92
  Q 304.18 258.23 303.22 254.21
  A 1.10 1.06 -84.5 0 0 302.64 253.48
  L 300.83 252.60
  Q 300.19 252.28 300.87 252.07"
/>
<path stroke="#918f90" vector-effect="non-scaling-stroke" d="
  M 332.75 260.24
  L 332.75 262.29
  Q 332.75 263.01 333.48 262.99
  L 336.86 262.89
  Q 337.59 262.87 337.49 262.15
  L 335.09 244.62
  Q 335.01 244.04 334.42 244.03
  L 328.59 243.99
  Q 328.14 243.98 328.09 244.42
  L 325.80 262.41
  A 0.58 0.58 0.0 0 0 326.41 263.06
  L 329.93 262.83
  Q 330.62 262.78 330.54 262.10
  Q 330.40 260.83 330.53 260.06
  A 1.12 1.12 0.0 0 1 332.75 260.24"
/>
<path stroke="#918f90" vector-effect="non-scaling-stroke" d="
  M 364.23 255.51
  A 0.47 0.47 0.0 0 1 364.69 255.03
  L 366.01 254.99
  A 0.47 0.47 0.0 0 1 366.50 255.46
  L 366.50 262.39
  A 0.47 0.47 0.0 0 0 366.95 262.86
  L 370.76 263.06
  A 0.47 0.47 0.0 0 0 371.25 262.59
  L 371.25 244.47
  A 0.47 0.47 0.0 0 0 370.78 244.00
  L 366.97 244.00
  A 0.47 0.47 0.0 0 0 366.50 244.47
  L 366.50 250.49
  A 0.47 0.47 0.0 0 1 365.96 250.95
  L 364.64 250.74
  A 0.47 0.47 0.0 0 1 364.24 250.28
  L 364.26 244.47
  A 0.47 0.47 0.0 0 0 363.79 244.00
  L 360.22 244.00
  A 0.47 0.47 0.0 0 0 359.75 244.47
  L 359.75 262.53
  A 0.47 0.47 0.0 0 0 360.22 263.00
  L 363.82 263.00
  A 0.47 0.47 0.0 0 0 364.29 262.53
  L 364.23 255.51"
/>
<path stroke="#918f90" vector-effect="non-scaling-stroke" d="
  M 398.31 259.68
  A 0.46 0.46 0.0 0 1 398.79 259.23
  L 400.05 259.28
  A 0.46 0.46 0.0 0 1 400.50 259.74
  L 400.50 262.55
  A 0.46 0.46 0.0 0 0 400.96 263.01
  L 404.85 262.98
  A 0.46 0.46 0.0 0 0 405.30 262.46
  L 402.85 244.38
  A 0.46 0.46 0.0 0 0 402.39 243.98
  L 396.27 244.04
  A 0.46 0.46 0.0 0 0 395.82 244.44
  L 393.57 262.48
  A 0.46 0.46 0.0 0 0 394.03 263.00
  L 397.76 263.00
  A 0.46 0.46 0.0 0 0 398.22 262.56
  L 398.31 259.68"
/>
<path stroke="#918f90" vector-effect="non-scaling-stroke" d="
  M 434.41 260.81
  L 434.20 262.31
  A 0.58 0.57 -85.5 0 0 434.75 262.96
  L 438.59 263.02
  Q 439.19 263.03 439.10 262.44
  L 436.55 244.59
  A 0.70 0.70 0.0 0 0 435.85 243.99
  L 430.29 244.03
  A 0.71 0.71 0.0 0 0 429.60 244.65
  L 427.33 262.19
  Q 427.24 262.89 427.95 262.91
  L 431.41 263.04
  Q 432.06 263.06 432.01 262.41
  C 431.96 261.63 432.04 257.54 434.03 259.63
  A 1.45 1.45 0.0 0 1 434.41 260.81"
/>
<path stroke="#8ddbc4" vector-effect="non-scaling-stroke" d="
  M 60.47 253.10
  A 0.37 0.36 38.3 0 1 61.18 253.02
  L 63.78 261.06
  A 1.52 1.52 0.0 0 0 66.68 261.05
  L 69.24 253.03
  A 0.33 0.33 0.0 0 1 69.88 253.11
  L 70.50 261.29
  A 0.73 0.73 0.0 0 0 71.23 261.97
  L 73.84 261.97
  A 0.49 0.48 87.8 0 0 74.32 261.44
  Q 73.58 253.48 72.95 245.50
  Q 72.90 244.91 72.32 244.95
  L 69.26 245.14
  Q 68.79 245.17 68.63 245.61
  L 65.64 253.95
  A 0.41 0.41 0.0 0 1 64.87 253.97
  Q 63.27 249.96 61.84 245.56
  Q 61.66 245.01 61.08 245.02
  L 58.22 245.07
  Q 57.54 245.09 57.48 245.77
  L 56.08 261.41
  A 0.57 0.56 -88.6 0 0 56.66 262.02
  L 59.24 261.94
  A 0.67 0.66 1.4 0 0 59.88 261.34
  L 60.47 253.10"
/>
<path stroke="#8ddbc4" vector-effect="non-scaling-stroke" d="
  M 129.84 251.00
  A 0.59 0.59 0.0 0 1 129.25 250.41
  L 129.25 245.55
  A 0.59 0.59 0.0 0 0 128.63 244.96
  L 126.06 245.11
  A 0.59 0.59 0.0 0 0 125.50 245.70
  L 125.50 261.43
  A 0.59 0.59 0.0 0 0 126.11 262.02
  L 128.68 261.95
  A 0.59 0.59 0.0 0 0 129.25 261.36
  L 129.25 254.91
  A 0.59 0.59 0.0 0 1 129.87 254.32
  L 133.94 254.56
  A 0.59 0.59 0.0 0 1 134.50 255.15
  L 134.50 261.36
  A 0.59 0.59 0.0 0 0 135.08 261.95
  L 137.65 262.00
  A 0.59 0.59 0.0 0 0 138.25 261.41
  L 138.25 245.65
  A 0.59 0.59 0.0 0 0 137.65 245.06
  L 135.08 245.12
  A 0.59 0.59 0.0 0 0 134.50 245.71
  L 134.50 250.41
  A 0.59 0.59 0.0 0 1 133.91 251.00
  L 129.84 251.00"
/>
<path stroke="#8ddbc4" vector-effect="non-scaling-stroke" d="
  M 165.31 245.52
  A 0.64 0.64 0.0 0 0 164.72 245.11
  L 162.05 245.06
  A 0.64 0.64 0.0 0 0 161.45 245.46
  L 155.31 261.01
  A 0.64 0.64 0.0 0 0 155.87 261.88
  L 158.52 262.03
  A 0.64 0.64 0.0 0 0 159.17 261.60
  L 160.09 258.86
  A 0.64 0.64 0.0 0 1 160.71 258.42
  L 166.18 258.54
  A 0.64 0.64 0.0 0 1 166.78 259.00
  L 167.53 261.58
  A 0.64 0.64 0.0 0 0 168.18 262.05
  L 170.85 261.91
  A 0.64 0.64 0.0 0 0 171.41 261.04
  L 165.31 245.52"
/>
<path stroke="#8ddbc4" vector-effect="non-scaling-stroke" d="
  M 192.03 253.16
  A 0.35 0.35 0.0 0 1 192.72 253.08
  L 195.30 261.23
  A 1.50 1.50 0.0 0 0 198.15 261.24
  L 200.68 253.42
  A 0.41 0.41 0.0 0 1 201.48 253.52
  Q 201.69 257.51 202.10 261.43
  Q 202.16 262.02 202.75 262.00
  L 205.39 261.95
  Q 205.91 261.94 205.86 261.42
  L 204.47 245.73
  Q 204.41 244.98 203.66 245.00
  L 200.92 245.04
  A 0.84 0.83 -80.2 0 0 200.15 245.59
  L 197.07 254.07
  A 0.37 0.37 0.0 0 1 196.38 254.07
  Q 194.82 249.94 193.40 245.76
  Q 193.19 245.14 192.53 245.11
  L 189.72 245.01
  Q 188.99 244.99 188.93 245.72
  L 187.68 261.36
  Q 187.64 261.88 188.16 261.91
  L 190.74 262.02
  A 0.63 0.63 0.0 0 0 191.40 261.44
  L 192.03 253.16"
/>
<path stroke="#8ddbc4" vector-effect="non-scaling-stroke" d="
  M 227.45 254.57
  L 231.30 254.32
  A 1.64 1.64 0.0 0 0 231.28 251.04
  L 227.63 250.87
  A 0.95 0.95 0.0 0 1 226.80 250.28
  Q 226.51 249.56 227.15 248.82
  Q 227.43 248.50 227.85 248.50
  L 231.96 248.50
  Q 232.67 248.50 232.67 247.79
  L 232.67 245.71
  Q 232.67 245.00 231.96 245.00
  L 223.75 245.00
  Q 223.25 245.00 223.25 245.50
  L 223.25 261.25
  A 0.76 0.76 0.0 0 0 224.01 262.01
  Q 228.02 261.99 232.02 262.01
  Q 232.71 262.01 232.71 261.32
  L 232.71 259.46
  Q 232.71 259.00 232.28 258.86
  Q 230.08 258.14 227.91 258.75
  A 0.72 0.72 0.0 0 1 227.00 258.06
  L 227.00 255.05
  Q 227.00 254.60 227.45 254.57"
/>
<path stroke="#8ddbc4" vector-effect="non-scaling-stroke" d="
  M 250.99 245.74
  L 251.01 261.32
  A 0.70 0.70 0.0 0 0 251.71 262.02
  L 255.54 262.01
  A 8.47 8.21 -0.1 0 0 264.00 253.79
  L 264.00 253.23
  A 8.47 8.21 -0.1 0 0 255.52 245.03
  L 251.69 245.04
  A 0.70 0.70 0.0 0 0 250.99 245.74"
/>
<path stroke="#8ddbc4" vector-effect="non-scaling-stroke" d="
  M 107.86 253.54
  A 8.36 8.36 0.0 0 0 99.50 245.18
  A 8.36 8.36 0.0 0 0 91.14 253.54
  A 8.36 8.36 0.0 0 0 99.50 261.90
  A 8.36 8.36 0.0 0 0 107.86 253.54"
/>
<path stroke="#918f90" vector-effect="non-scaling-stroke" d="
  M 105.62 285.30
  L 150.91 318.00
  Q 151.29 318.28 151.55 317.89
  L 162.67 301.44
  Q 162.96 301.00 162.50 300.74
  Q 149.89 293.61 137.32 286.26
  Q 135.48 285.19 133.37 285.14
  Q 119.40 284.82 105.69 285.07
  Q 105.30 285.08 105.62 285.30"
/>
<path stroke="#918f90" vector-effect="non-scaling-stroke" d="
  M 185.19 383.22
  L 195.18 386.97
  A 0.49 0.48 -69.5 0 0 195.80 386.68
  Q 214.52 335.90 234.70 285.67
  Q 234.97 285.00 234.24 285.00
  L 227.50 285.00
  Q 227.04 285.00 226.86 285.42
  L 184.88 382.48
  A 0.56 0.55 -68.3 0 0 185.19 383.22"
/>
<path stroke="#918f90" vector-effect="non-scaling-stroke" d="
  M 350.68 317.22
  Q 372.23 300.59 394.78 285.32
  Q 395.21 285.02 394.69 285.02
  Q 380.94 284.95 367.17 285.00
  Q 365.04 285.01 363.18 286.04
  Q 350.28 293.19 337.62 300.66
  A 0.68 0.68 0.0 0 0 337.41 301.63
  L 348.62 318.08
  Q 348.89 318.48 349.29 318.21
  Q 350.09 317.67 350.68 317.22"
/>
<path stroke="#918f90" vector-effect="non-scaling-stroke" d="
  M 297.9024 251.4300
  A 2.36 0.91 89.7 0 0 298.8000 249.0652
  A 2.36 0.91 89.7 0 0 297.8776 246.7100
  A 2.36 0.91 89.7 0 0 296.9800 249.0748
  A 2.36 0.91 89.7 0 0 297.9024 251.4300"
/>
<path stroke="#918f90" vector-effect="non-scaling-stroke" d="
  M 298.6718 254.7500
  A 0.74 0.74 0.0 0 0 297.9229 254.0191
  L 297.7429 254.0213
  A 0.74 0.74 0.0 0 0 297.0120 254.7703
  L 297.0682 259.3700
  A 0.74 0.74 0.0 0 0 297.8171 260.1009
  L 297.9971 260.0987
  A 0.74 0.74 0.0 0 0 298.7280 259.3497
  L 298.6718 254.7500"
/>
<path stroke="#918f90" vector-effect="non-scaling-stroke" d="
  M 331.17 255.97
  L 332.11 255.97
  A 0.21 0.21 0.0 0 0 332.32 255.76
  L 332.32 255.66
  A 7.63 0.51 -89.9 0 0 331.83 248.03
  L 331.49 248.03
  A 7.63 0.51 -89.9 0 0 330.96 255.66
  L 330.96 255.76
  A 0.21 0.21 0.0 0 0 331.17 255.97"
/>
<path stroke="#918f90" vector-effect="non-scaling-stroke" d="
  M 399.17 249.79
  L 398.51 255.41
  Q 398.43 256.04 399.07 256.01
  L 399.80 255.97
  Q 400.34 255.94 400.28 255.40
  L 399.69 249.77"
/>
<path stroke="#1f6b55" vector-effect="non-scaling-stroke" d="
  M 399.69 249.77
  Q 399.98 248.15 399.46 247.85
  A 0.29 0.28 12.3 0 0 399.03 248.12
  L 399.17 249.79"
/>
<path stroke="#8ddbc4" vector-effect="non-scaling-stroke" d="
  M 399.69 249.77
  L 399.17 249.79"
/>
<path stroke="#918f90" vector-effect="non-scaling-stroke" d="
  M 432.52 255.96
  L 433.60 255.98
  A 0.22 0.22 0.0 0 0 433.82 255.77
  L 433.83 255.56
  A 7.31 0.74 -88.8 0 0 433.24 248.23
  L 433.20 248.23
  A 7.31 0.74 -88.8 0 0 432.31 255.52
  L 432.30 255.73
  A 0.22 0.22 0.0 0 0 432.52 255.96"
/>
<path stroke="#8ddbc4" vector-effect="non-scaling-stroke" d="
  M 161.53 254.66
  A 0.32 0.32 0.0 0 0 161.84 255.10
  L 164.78 255.05
  A 0.32 0.32 0.0 0 0 165.06 254.60
  L 163.53 251.16
  A 0.32 0.32 0.0 0 0 162.94 251.17
  L 161.53 254.66"
/>
<path stroke="#8ddbc4" vector-effect="non-scaling-stroke" d="
  M 254.75 248.76
  L 254.79 258.28
  A 0.22 0.22 0.0 0 0 255.01 258.50
  L 255.13 258.50
  A 4.88 4.84 89.8 0 0 259.95 253.60
  L 259.95 253.40
  A 4.88 4.84 89.8 0 0 255.09 248.54
  L 254.97 248.54
  A 0.22 0.22 0.0 0 0 254.75 248.76"
/>
<path stroke="#8ddbc4" vector-effect="non-scaling-stroke" d="
  M 99.4180 258.1784
  A 4.66 4.23 91.5 0 0 103.7686 253.6307
  A 4.66 4.23 91.5 0 0 99.6620 248.8616
  A 4.66 4.23 91.5 0 0 95.3114 253.4093
  A 4.66 4.23 91.5 0 0 99.4180 258.1784"
/>
</g>
<path fill="#ffffff" d="
  M 0.00 0.00
  L 500.00 0.00
  L 500.00 500.00
  L 0.00 500.00
  L 0.00 0.00
  Z
  M 304.08 90.38
  Q 277.79 161.14 249.16 230.98
  A 0.38 0.37 -78.8 0 0 249.50 231.50
  L 256.24 231.50
  Q 256.65 231.50 256.81 231.11
  Q 284.92 162.41 315.24 94.64
  A 0.37 0.36 22.6 0 0 315.03 94.15
  L 304.52 90.17
  A 0.35 0.34 -69.7 0 0 304.08 90.38
  Z
  M 128.46 230.21
  Q 145.40 221.46 162.27 211.30
  Q 162.94 210.90 162.50 210.26
  L 151.34 194.10
  A 0.41 0.39 -35.2 0 0 150.77 194.01
  Q 125.46 213.17 99.19 231.00
  Q 98.62 231.39 99.31 231.41
  Q 111.63 231.73 123.90 231.39
  Q 126.31 231.32 128.46 230.21
  Z
  M 348.63 194.15
  L 337.30 210.53
  Q 337.00 210.97 337.45 211.23
  Q 354.39 221.14 371.67 230.50
  Q 373.53 231.51 375.67 231.51
  Q 388.24 231.50 400.91 231.50
  Q 401.43 231.50 401.00 231.21
  Q 374.63 213.28 349.20 194.06
  A 0.41 0.39 35.2 0 0 348.63 194.15
  Z
  M 300.87 252.07
  L 302.11 251.69
  Q 302.71 251.50 302.91 250.90
  Q 303.94 247.78 302.35 244.92
  Q 302.01 244.29 301.29 244.26
  L 293.19 243.90
  Q 292.50 243.87 292.50 244.56
  L 292.50 262.59
  Q 292.50 263.20 293.10 263.16
  L 301.77 262.58
  Q 302.43 262.54 302.68 261.92
  Q 304.18 258.23 303.22 254.21
  A 1.10 1.06 -84.5 0 0 302.64 253.48
  L 300.83 252.60
  Q 300.19 252.28 300.87 252.07
  Z
  M 332.75 260.24
  L 332.75 262.29
  Q 332.75 263.01 333.48 262.99
  L 336.86 262.89
  Q 337.59 262.87 337.49 262.15
  L 335.09 244.62
  Q 335.01 244.04 334.42 244.03
  L 328.59 243.99
  Q 328.14 243.98 328.09 244.42
  L 325.80 262.41
  A 0.58 0.58 0.0 0 0 326.41 263.06
  L 329.93 262.83
  Q 330.62 262.78 330.54 262.10
  Q 330.40 260.83 330.53 260.06
  A 1.12 1.12 0.0 0 1 332.75 260.24
  Z
  M 364.23 255.51
  A 0.47 0.47 0.0 0 1 364.69 255.03
  L 366.01 254.99
  A 0.47 0.47 0.0 0 1 366.50 255.46
  L 366.50 262.39
  A 0.47 0.47 0.0 0 0 366.95 262.86
  L 370.76 263.06
  A 0.47 0.47 0.0 0 0 371.25 262.59
  L 371.25 244.47
  A 0.47 0.47 0.0 0 0 370.78 244.00
  L 366.97 244.00
  A 0.47 0.47 0.0 0 0 366.50 244.47
  L 366.50 250.49
  A 0.47 0.47 0.0 0 1 365.96 250.95
  L 364.64 250.74
  A 0.47 0.47 0.0 0 1 364.24 250.28
  L 364.26 244.47
  A 0.47 0.47 0.0 0 0 363.79 244.00
  L 360.22 244.00
  A 0.47 0.47 0.0 0 0 359.75 244.47
  L 359.75 262.53
  A 0.47 0.47 0.0 0 0 360.22 263.00
  L 363.82 263.00
  A 0.47 0.47 0.0 0 0 364.29 262.53
  L 364.23 255.51
  Z
  M 398.31 259.68
  A 0.46 0.46 0.0 0 1 398.79 259.23
  L 400.05 259.28
  A 0.46 0.46 0.0 0 1 400.50 259.74
  L 400.50 262.55
  A 0.46 0.46 0.0 0 0 400.96 263.01
  L 404.85 262.98
  A 0.46 0.46 0.0 0 0 405.30 262.46
  L 402.85 244.38
  A 0.46 0.46 0.0 0 0 402.39 243.98
  L 396.27 244.04
  A 0.46 0.46 0.0 0 0 395.82 244.44
  L 393.57 262.48
  A 0.46 0.46 0.0 0 0 394.03 263.00
  L 397.76 263.00
  A 0.46 0.46 0.0 0 0 398.22 262.56
  L 398.31 259.68
  Z
  M 434.41 260.81
  L 434.20 262.31
  A 0.58 0.57 -85.5 0 0 434.75 262.96
  L 438.59 263.02
  Q 439.19 263.03 439.10 262.44
  L 436.55 244.59
  A 0.70 0.70 0.0 0 0 435.85 243.99
  L 430.29 244.03
  A 0.71 0.71 0.0 0 0 429.60 244.65
  L 427.33 262.19
  Q 427.24 262.89 427.95 262.91
  L 431.41 263.04
  Q 432.06 263.06 432.01 262.41
  C 431.96 261.63 432.04 257.54 434.03 259.63
  A 1.45 1.45 0.0 0 1 434.41 260.81
  Z
  M 60.47 253.10
  A 0.37 0.36 38.3 0 1 61.18 253.02
  L 63.78 261.06
  A 1.52 1.52 0.0 0 0 66.68 261.05
  L 69.24 253.03
  A 0.33 0.33 0.0 0 1 69.88 253.11
  L 70.50 261.29
  A 0.73 0.73 0.0 0 0 71.23 261.97
  L 73.84 261.97
  A 0.49 0.48 87.8 0 0 74.32 261.44
  Q 73.58 253.48 72.95 245.50
  Q 72.90 244.91 72.32 244.95
  L 69.26 245.14
  Q 68.79 245.17 68.63 245.61
  L 65.64 253.95
  A 0.41 0.41 0.0 0 1 64.87 253.97
  Q 63.27 249.96 61.84 245.56
  Q 61.66 245.01 61.08 245.02
  L 58.22 245.07
  Q 57.54 245.09 57.48 245.77
  L 56.08 261.41
  A 0.57 0.56 -88.6 0 0 56.66 262.02
  L 59.24 261.94
  A 0.67 0.66 1.4 0 0 59.88 261.34
  L 60.47 253.10
  Z
  M 129.84 251.00
  A 0.59 0.59 0.0 0 1 129.25 250.41
  L 129.25 245.55
  A 0.59 0.59 0.0 0 0 128.63 244.96
  L 126.06 245.11
  A 0.59 0.59 0.0 0 0 125.50 245.70
  L 125.50 261.43
  A 0.59 0.59 0.0 0 0 126.11 262.02
  L 128.68 261.95
  A 0.59 0.59 0.0 0 0 129.25 261.36
  L 129.25 254.91
  A 0.59 0.59 0.0 0 1 129.87 254.32
  L 133.94 254.56
  A 0.59 0.59 0.0 0 1 134.50 255.15
  L 134.50 261.36
  A 0.59 0.59 0.0 0 0 135.08 261.95
  L 137.65 262.00
  A 0.59 0.59 0.0 0 0 138.25 261.41
  L 138.25 245.65
  A 0.59 0.59 0.0 0 0 137.65 245.06
  L 135.08 245.12
  A 0.59 0.59 0.0 0 0 134.50 245.71
  L 134.50 250.41
  A 0.59 0.59 0.0 0 1 133.91 251.00
  L 129.84 251.00
  Z
  M 165.31 245.52
  A 0.64 0.64 0.0 0 0 164.72 245.11
  L 162.05 245.06
  A 0.64 0.64 0.0 0 0 161.45 245.46
  L 155.31 261.01
  A 0.64 0.64 0.0 0 0 155.87 261.88
  L 158.52 262.03
  A 0.64 0.64 0.0 0 0 159.17 261.60
  L 160.09 258.86
  A 0.64 0.64 0.0 0 1 160.71 258.42
  L 166.18 258.54
  A 0.64 0.64 0.0 0 1 166.78 259.00
  L 167.53 261.58
  A 0.64 0.64 0.0 0 0 168.18 262.05
  L 170.85 261.91
  A 0.64 0.64 0.0 0 0 171.41 261.04
  L 165.31 245.52
  Z
  M 192.03 253.16
  A 0.35 0.35 0.0 0 1 192.72 253.08
  L 195.30 261.23
  A 1.50 1.50 0.0 0 0 198.15 261.24
  L 200.68 253.42
  A 0.41 0.41 0.0 0 1 201.48 253.52
  Q 201.69 257.51 202.10 261.43
  Q 202.16 262.02 202.75 262.00
  L 205.39 261.95
  Q 205.91 261.94 205.86 261.42
  L 204.47 245.73
  Q 204.41 244.98 203.66 245.00
  L 200.92 245.04
  A 0.84 0.83 -80.2 0 0 200.15 245.59
  L 197.07 254.07
  A 0.37 0.37 0.0 0 1 196.38 254.07
  Q 194.82 249.94 193.40 245.76
  Q 193.19 245.14 192.53 245.11
  L 189.72 245.01
  Q 188.99 244.99 188.93 245.72
  L 187.68 261.36
  Q 187.64 261.88 188.16 261.91
  L 190.74 262.02
  A 0.63 0.63 0.0 0 0 191.40 261.44
  L 192.03 253.16
  Z
  M 227.45 254.57
  L 231.30 254.32
  A 1.64 1.64 0.0 0 0 231.28 251.04
  L 227.63 250.87
  A 0.95 0.95 0.0 0 1 226.80 250.28
  Q 226.51 249.56 227.15 248.82
  Q 227.43 248.50 227.85 248.50
  L 231.96 248.50
  Q 232.67 248.50 232.67 247.79
  L 232.67 245.71
  Q 232.67 245.00 231.96 245.00
  L 223.75 245.00
  Q 223.25 245.00 223.25 245.50
  L 223.25 261.25
  A 0.76 0.76 0.0 0 0 224.01 262.01
  Q 228.02 261.99 232.02 262.01
  Q 232.71 262.01 232.71 261.32
  L 232.71 259.46
  Q 232.71 259.00 232.28 258.86
  Q 230.08 258.14 227.91 258.75
  A 0.72 0.72 0.0 0 1 227.00 258.06
  L 227.00 255.05
  Q 227.00 254.60 227.45 254.57
  Z
  M 250.99 245.74
  L 251.01 261.32
  A 0.70 0.70 0.0 0 0 251.71 262.02
  L 255.54 262.01
  A 8.47 8.21 -0.1 0 0 264.00 253.79
  L 264.00 253.23
  A 8.47 8.21 -0.1 0 0 255.52 245.03
  L 251.69 245.04
  A 0.70 0.70 0.0 0 0 250.99 245.74
  Z
  M 107.86 253.54
  A 8.36 8.36 0.0 0 0 99.50 245.18
  A 8.36 8.36 0.0 0 0 91.14 253.54
  A 8.36 8.36 0.0 0 0 99.50 261.90
  A 8.36 8.36 0.0 0 0 107.86 253.54
  Z
  M 105.62 285.30
  L 150.91 318.00
  Q 151.29 318.28 151.55 317.89
  L 162.67 301.44
  Q 162.96 301.00 162.50 300.74
  Q 149.89 293.61 137.32 286.26
  Q 135.48 285.19 133.37 285.14
  Q 119.40 284.82 105.69 285.07
  Q 105.30 285.08 105.62 285.30
  Z
  M 185.19 383.22
  L 195.18 386.97
  A 0.49 0.48 -69.5 0 0 195.80 386.68
  Q 214.52 335.90 234.70 285.67
  Q 234.97 285.00 234.24 285.00
  L 227.50 285.00
  Q 227.04 285.00 226.86 285.42
  L 184.88 382.48
  A 0.56 0.55 -68.3 0 0 185.19 383.22
  Z
  M 350.68 317.22
  Q 372.23 300.59 394.78 285.32
  Q 395.21 285.02 394.69 285.02
  Q 380.94 284.95 367.17 285.00
  Q 365.04 285.01 363.18 286.04
  Q 350.28 293.19 337.62 300.66
  A 0.68 0.68 0.0 0 0 337.41 301.63
  L 348.62 318.08
  Q 348.89 318.48 349.29 318.21
  Q 350.09 317.67 350.68 317.22
  Z"
/>
<path fill="#231f20" d="
  M 304.08 90.38
  A 0.35 0.34 -69.7 0 1 304.52 90.17
  L 315.03 94.15
  A 0.37 0.36 22.6 0 1 315.24 94.64
  Q 284.92 162.41 256.81 231.11
  Q 256.65 231.50 256.24 231.50
  L 249.50 231.50
  A 0.38 0.37 -78.8 0 1 249.16 230.98
  Q 277.79 161.14 304.08 90.38
  Z"
/>
<path fill="#231f20" d="
  M 123.90 231.39
  Q 111.63 231.73 99.31 231.41
  Q 98.62 231.39 99.19 231.00
  Q 125.46 213.17 150.77 194.01
  A 0.41 0.39 -35.2 0 1 151.34 194.10
  L 162.50 210.26
  Q 162.94 210.90 162.27 211.30
  Q 145.40 221.46 128.46 230.21
  Q 126.31 231.32 123.90 231.39
  Z"
/>
<path fill="#231f20" d="
  M 348.63 194.15
  A 0.41 0.39 35.2 0 1 349.20 194.06
  Q 374.63 213.28 401.00 231.21
  Q 401.43 231.50 400.91 231.50
  Q 388.24 231.50 375.67 231.51
  Q 373.53 231.51 371.67 230.50
  Q 354.39 221.14 337.45 211.23
  Q 337.00 210.97 337.30 210.53
  L 348.63 194.15
  Z"
/>
<path fill="#231f20" d="
  M 300.83 252.60
  L 302.64 253.48
  A 1.10 1.06 -84.5 0 1 303.22 254.21
  Q 304.18 258.23 302.68 261.92
  Q 302.43 262.54 301.77 262.58
  L 293.10 263.16
  Q 292.50 263.20 292.50 262.59
  L 292.50 244.56
  Q 292.50 243.87 293.19 243.90
  L 301.29 244.26
  Q 302.01 244.29 302.35 244.92
  Q 303.94 247.78 302.91 250.90
  Q 302.71 251.50 302.11 251.69
  L 300.87 252.07
  Q 300.19 252.28 300.83 252.60
  Z
  M 297.9024 251.4300
  A 2.36 0.91 89.7 0 0 298.8000 249.0652
  A 2.36 0.91 89.7 0 0 297.8776 246.7100
  A 2.36 0.91 89.7 0 0 296.9800 249.0748
  A 2.36 0.91 89.7 0 0 297.9024 251.4300
  Z
  M 298.6718 254.7500
  A 0.74 0.74 0.0 0 0 297.9229 254.0191
  L 297.7429 254.0213
  A 0.74 0.74 0.0 0 0 297.0120 254.7703
  L 297.0682 259.3700
  A 0.74 0.74 0.0 0 0 297.8171 260.1009
  L 297.9971 260.0987
  A 0.74 0.74 0.0 0 0 298.7280 259.3497
  L 298.6718 254.7500
  Z"
/>
<path fill="#231f20" d="
  M 332.75 260.24
  A 1.12 1.12 0.0 0 0 330.53 260.06
  Q 330.40 260.83 330.54 262.10
  Q 330.62 262.78 329.93 262.83
  L 326.41 263.06
  A 0.58 0.58 0.0 0 1 325.80 262.41
  L 328.09 244.42
  Q 328.14 243.98 328.59 243.99
  L 334.42 244.03
  Q 335.01 244.04 335.09 244.62
  L 337.49 262.15
  Q 337.59 262.87 336.86 262.89
  L 333.48 262.99
  Q 332.75 263.01 332.75 262.29
  L 332.75 260.24
  Z
  M 331.17 255.97
  L 332.11 255.97
  A 0.21 0.21 0.0 0 0 332.32 255.76
  L 332.32 255.66
  A 7.63 0.51 -89.9 0 0 331.83 248.03
  L 331.49 248.03
  A 7.63 0.51 -89.9 0 0 330.96 255.66
  L 330.96 255.76
  A 0.21 0.21 0.0 0 0 331.17 255.97
  Z"
/>
<path fill="#231f20" d="
  M 364.23 255.51
  L 364.29 262.53
  A 0.47 0.47 0.0 0 1 363.82 263.00
  L 360.22 263.00
  A 0.47 0.47 0.0 0 1 359.75 262.53
  L 359.75 244.47
  A 0.47 0.47 0.0 0 1 360.22 244.00
  L 363.79 244.00
  A 0.47 0.47 0.0 0 1 364.26 244.47
  L 364.24 250.28
  A 0.47 0.47 0.0 0 0 364.64 250.74
  L 365.96 250.95
  A 0.47 0.47 0.0 0 0 366.50 250.49
  L 366.50 244.47
  A 0.47 0.47 0.0 0 1 366.97 244.00
  L 370.78 244.00
  A 0.47 0.47 0.0 0 1 371.25 244.47
  L 371.25 262.59
  A 0.47 0.47 0.0 0 1 370.76 263.06
  L 366.95 262.86
  A 0.47 0.47 0.0 0 1 366.50 262.39
  L 366.50 255.46
  A 0.47 0.47 0.0 0 0 366.01 254.99
  L 364.69 255.03
  A 0.47 0.47 0.0 0 0 364.23 255.51
  Z"
/>
<path fill="#231f20" d="
  M 398.31 259.68
  L 398.22 262.56
  A 0.46 0.46 0.0 0 1 397.76 263.00
  L 394.03 263.00
  A 0.46 0.46 0.0 0 1 393.57 262.48
  L 395.82 244.44
  A 0.46 0.46 0.0 0 1 396.27 244.04
  L 402.39 243.98
  A 0.46 0.46 0.0 0 1 402.85 244.38
  L 405.30 262.46
  A 0.46 0.46 0.0 0 1 404.85 262.98
  L 400.96 263.01
  A 0.46 0.46 0.0 0 1 400.50 262.55
  L 400.50 259.74
  A 0.46 0.46 0.0 0 0 400.05 259.28
  L 398.79 259.23
  A 0.46 0.46 0.0 0 0 398.31 259.68
  Z
  M 399.17 249.79
  L 398.51 255.41
  Q 398.43 256.04 399.07 256.01
  L 399.80 255.97
  Q 400.34 255.94 400.28 255.40
  L 399.69 249.77
  Q 399.98 248.15 399.46 247.85
  A 0.29 0.28 12.3 0 0 399.03 248.12
  L 399.17 249.79
  Z"
/>
<path fill="#231f20" d="
  M 434.41 260.81
  A 1.45 1.45 0.0 0 0 434.03 259.63
  C 432.04 257.54 431.96 261.63 432.01 262.41
  Q 432.06 263.06 431.41 263.04
  L 427.95 262.91
  Q 427.24 262.89 427.33 262.19
  L 429.60 244.65
  A 0.71 0.71 0.0 0 1 430.29 244.03
  L 435.85 243.99
  A 0.70 0.70 0.0 0 1 436.55 244.59
  L 439.10 262.44
  Q 439.19 263.03 438.59 263.02
  L 434.75 262.96
  A 0.58 0.57 -85.5 0 1 434.20 262.31
  L 434.41 260.81
  Z
  M 432.52 255.96
  L 433.60 255.98
  A 0.22 0.22 0.0 0 0 433.82 255.77
  L 433.83 255.56
  A 7.31 0.74 -88.8 0 0 433.24 248.23
  L 433.20 248.23
  A 7.31 0.74 -88.8 0 0 432.31 255.52
  L 432.30 255.73
  A 0.22 0.22 0.0 0 0 432.52 255.96
  Z"
/>
<path fill="#1ab789" d="
  M 60.47 253.10
  L 59.88 261.34
  A 0.67 0.66 1.4 0 1 59.24 261.94
  L 56.66 262.02
  A 0.57 0.56 -88.6 0 1 56.08 261.41
  L 57.48 245.77
  Q 57.54 245.09 58.22 245.07
  L 61.08 245.02
  Q 61.66 245.01 61.84 245.56
  Q 63.27 249.96 64.87 253.97
  A 0.41 0.41 0.0 0 0 65.64 253.95
  L 68.63 245.61
  Q 68.79 245.17 69.26 245.14
  L 72.32 244.95
  Q 72.90 244.91 72.95 245.50
  Q 73.58 253.48 74.32 261.44
  A 0.49 0.48 87.8 0 1 73.84 261.97
  L 71.23 261.97
  A 0.73 0.73 0.0 0 1 70.50 261.29
  L 69.88 253.11
  A 0.33 0.33 0.0 0 0 69.24 253.03
  L 66.68 261.05
  A 1.52 1.52 0.0 0 1 63.78 261.06
  L 61.18 253.02
  A 0.37 0.36 38.3 0 0 60.47 253.10
  Z"
/>
<path fill="#1ab789" d="
  M 129.84 251.00
  L 133.91 251.00
  A 0.59 0.59 0.0 0 0 134.50 250.41
  L 134.50 245.71
  A 0.59 0.59 0.0 0 1 135.08 245.12
  L 137.65 245.06
  A 0.59 0.59 0.0 0 1 138.25 245.65
  L 138.25 261.41
  A 0.59 0.59 0.0 0 1 137.65 262.00
  L 135.08 261.95
  A 0.59 0.59 0.0 0 1 134.50 261.36
  L 134.50 255.15
  A 0.59 0.59 0.0 0 0 133.94 254.56
  L 129.87 254.32
  A 0.59 0.59 0.0 0 0 129.25 254.91
  L 129.25 261.36
  A 0.59 0.59 0.0 0 1 128.68 261.95
  L 126.11 262.02
  A 0.59 0.59 0.0 0 1 125.50 261.43
  L 125.50 245.70
  A 0.59 0.59 0.0 0 1 126.06 245.11
  L 128.63 244.96
  A 0.59 0.59 0.0 0 1 129.25 245.55
  L 129.25 250.41
  A 0.59 0.59 0.0 0 0 129.84 251.00
  Z"
/>
<path fill="#1ab789" d="
  M 165.31 245.52
  L 171.41 261.04
  A 0.64 0.64 0.0 0 1 170.85 261.91
  L 168.18 262.05
  A 0.64 0.64 0.0 0 1 167.53 261.58
  L 166.78 259.00
  A 0.64 0.64 0.0 0 0 166.18 258.54
  L 160.71 258.42
  A 0.64 0.64 0.0 0 0 160.09 258.86
  L 159.17 261.60
  A 0.64 0.64 0.0 0 1 158.52 262.03
  L 155.87 261.88
  A 0.64 0.64 0.0 0 1 155.31 261.01
  L 161.45 245.46
  A 0.64 0.64 0.0 0 1 162.05 245.06
  L 164.72 245.11
  A 0.64 0.64 0.0 0 1 165.31 245.52
  Z
  M 161.53 254.66
  A 0.32 0.32 0.0 0 0 161.84 255.10
  L 164.78 255.05
  A 0.32 0.32 0.0 0 0 165.06 254.60
  L 163.53 251.16
  A 0.32 0.32 0.0 0 0 162.94 251.17
  L 161.53 254.66
  Z"
/>
<path fill="#1ab789" d="
  M 192.03 253.16
  L 191.40 261.44
  A 0.63 0.63 0.0 0 1 190.74 262.02
  L 188.16 261.91
  Q 187.64 261.88 187.68 261.36
  L 188.93 245.72
  Q 188.99 244.99 189.72 245.01
  L 192.53 245.11
  Q 193.19 245.14 193.40 245.76
  Q 194.82 249.94 196.38 254.07
  A 0.37 0.37 0.0 0 0 197.07 254.07
  L 200.15 245.59
  A 0.84 0.83 -80.2 0 1 200.92 245.04
  L 203.66 245.00
  Q 204.41 244.98 204.47 245.73
  L 205.86 261.42
  Q 205.91 261.94 205.39 261.95
  L 202.75 262.00
  Q 202.16 262.02 202.10 261.43
  Q 201.69 257.51 201.48 253.52
  A 0.41 0.41 0.0 0 0 200.68 253.42
  L 198.15 261.24
  A 1.50 1.50 0.0 0 1 195.30 261.23
  L 192.72 253.08
  A 0.35 0.35 0.0 0 0 192.03 253.16
  Z"
/>
<path fill="#1ab789" d="
  M 227.00 255.05
  L 227.00 258.06
  A 0.72 0.72 0.0 0 0 227.91 258.75
  Q 230.08 258.14 232.28 258.86
  Q 232.71 259.00 232.71 259.46
  L 232.71 261.32
  Q 232.71 262.01 232.02 262.01
  Q 228.02 261.99 224.01 262.01
  A 0.76 0.76 0.0 0 1 223.25 261.25
  L 223.25 245.50
  Q 223.25 245.00 223.75 245.00
  L 231.96 245.00
  Q 232.67 245.00 232.67 245.71
  L 232.67 247.79
  Q 232.67 248.50 231.96 248.50
  L 227.85 248.50
  Q 227.43 248.50 227.15 248.82
  Q 226.51 249.56 226.80 250.28
  A 0.95 0.95 0.0 0 0 227.63 250.87
  L 231.28 251.04
  A 1.64 1.64 0.0 0 1 231.30 254.32
  L 227.45 254.57
  Q 227.00 254.60 227.00 255.05
  Z"
/>
<path fill="#1ab789" d="
  M 250.99 245.74
  A 0.70 0.70 0.0 0 1 251.69 245.04
  L 255.52 245.03
  A 8.47 8.21 -0.1 0 1 264.00 253.23
  L 264.00 253.79
  A 8.47 8.21 -0.1 0 1 255.54 262.01
  L 251.71 262.02
  A 0.70 0.70 0.0 0 1 251.01 261.32
  L 250.99 245.74
  Z
  M 254.75 248.76
  L 254.79 258.28
  A 0.22 0.22 0.0 0 0 255.01 258.50
  L 255.13 258.50
  A 4.88 4.84 89.8 0 0 259.95 253.60
  L 259.95 253.40
  A 4.88 4.84 89.8 0 0 255.09 248.54
  L 254.97 248.54
  A 0.22 0.22 0.0 0 0 254.75 248.76
  Z"
/>
<path fill="#1ab789" d="
  M 107.86 253.54
  A 8.36 8.36 0.0 0 1 99.50 261.90
  A 8.36 8.36 0.0 0 1 91.14 253.54
  A 8.36 8.36 0.0 0 1 99.50 245.18
  A 8.36 8.36 0.0 0 1 107.86 253.54
  Z
  M 99.4180 258.1784
  A 4.66 4.23 91.5 0 0 103.7686 253.6307
  A 4.66 4.23 91.5 0 0 99.6620 248.8616
  A 4.66 4.23 91.5 0 0 95.3114 253.4093
  A 4.66 4.23 91.5 0 0 99.4180 258.1784
  Z"
/>
<ellipse fill="#ffffff" cx="0.00" cy="0.00" transform="translate(297.89,249.07) rotate(89.7)" rx="2.36" ry="0.91"/>
<path fill="#1ab789" d="
  M 399.69 249.77
  L 399.17 249.79
  L 399.03 248.12
  A 0.29 0.28 12.3 0 1 399.46 247.85
  Q 399.98 248.15 399.69 249.77
  Z"
/>
<path fill="#ffffff" d="
  M 331.17 255.97
  A 0.21 0.21 0.0 0 1 330.96 255.76
  L 330.96 255.66
  A 7.63 0.51 -89.9 0 1 331.49 248.03
  L 331.83 248.03
  A 7.63 0.51 -89.9 0 1 332.32 255.66
  L 332.32 255.76
  A 0.21 0.21 0.0 0 1 332.11 255.97
  L 331.17 255.97
  Z"
/>
<path fill="#ffffff" d="
  M 432.52 255.96
  A 0.22 0.22 0.0 0 1 432.30 255.73
  L 432.31 255.52
  A 7.31 0.74 -88.8 0 1 433.20 248.23
  L 433.24 248.23
  A 7.31 0.74 -88.8 0 1 433.83 255.56
  L 433.82 255.77
  A 0.22 0.22 0.0 0 1 433.60 255.98
  L 432.52 255.96
  Z"
/>
<path fill="#ffffff" d="
  M 254.75 248.76
  A 0.22 0.22 0.0 0 1 254.97 248.54
  L 255.09 248.54
  A 4.88 4.84 89.8 0 1 259.95 253.40
  L 259.95 253.60
  A 4.88 4.84 89.8 0 1 255.13 258.50
  L 255.01 258.50
  A 0.22 0.22 0.0 0 1 254.79 258.28
  L 254.75 248.76
  Z"
/>
<ellipse fill="#ffffff" cx="0.00" cy="0.00" transform="translate(99.54,253.52) rotate(91.5)" rx="4.66" ry="4.23"/>
<path fill="#ffffff" d="
  M 399.17 249.79
  L 399.69 249.77
  L 400.28 255.40
  Q 400.34 255.94 399.80 255.97
  L 399.07 256.01
  Q 398.43 256.04 398.51 255.41
  L 399.17 249.79
  Z"
/>
<path fill="#ffffff" d="
  M 161.53 254.66
  L 162.94 251.17
  A 0.32 0.32 0.0 0 1 163.53 251.16
  L 165.06 254.60
  A 0.32 0.32 0.0 0 1 164.78 255.05
  L 161.84 255.10
  A 0.32 0.32 0.0 0 1 161.53 254.66
  Z"
/>
<rect fill="#ffffff" x="-0.83" y="-3.04" transform="translate(297.87,257.06) rotate(-0.7)" width="1.66" height="6.08" rx="0.74"/>
<path fill="#231f20" d="
  M 105.62 285.30
  Q 105.30 285.08 105.69 285.07
  Q 119.40 284.82 133.37 285.14
  Q 135.48 285.19 137.32 286.26
  Q 149.89 293.61 162.50 300.74
  Q 162.96 301.00 162.67 301.44
  L 151.55 317.89
  Q 151.29 318.28 150.91 318.00
  L 105.62 285.30
  Z"
/>
<path fill="#231f20" d="
  M 185.19 383.22
  A 0.56 0.55 -68.3 0 1 184.88 382.48
  L 226.86 285.42
  Q 227.04 285.00 227.50 285.00
  L 234.24 285.00
  Q 234.97 285.00 234.70 285.67
  Q 214.52 335.90 195.80 386.68
  A 0.49 0.48 -69.5 0 1 195.18 386.97
  L 185.19 383.22
  Z"
/>
<path fill="#231f20" d="
  M 350.68 317.22
  Q 350.09 317.67 349.29 318.21
  Q 348.89 318.48 348.62 318.08
  L 337.41 301.63
  A 0.68 0.68 0.0 0 1 337.62 300.66
  Q 350.28 293.19 363.18 286.04
  Q 365.04 285.01 367.17 285.00
  Q 380.94 284.95 394.69 285.02
  Q 395.21 285.02 394.78 285.32
  Q 372.23 300.59 350.68 317.22
  Z"
/>
</svg>
